<svg width="36" height="36" viewBox="0 0 36 36" fill="none" xmlns="http://www.w3.org/2000/svg">
<path fill-rule="evenodd" clip-rule="evenodd" d="M17.5837 22.0556C17.4544 22.0556 17.2993 21.9781 17.1959 21.8746L11.8186 16.5231C11.6634 16.368 11.6117 16.1095 11.7151 15.9027C11.7927 15.6958 11.9995 15.5666 12.2063 15.5666H22.9611C23.1937 15.5666 23.3747 15.6958 23.4781 15.9027C23.5557 16.1095 23.504 16.368 23.3488 16.5231L17.9715 21.8746C17.8681 21.9781 17.7388 22.0556 17.5837 22.0556ZM13.5507 16.6783L17.5837 20.7113L21.6167 16.6783H13.5507Z" fill="white"/>
<path d="M17.5837 23.6585C17.2734 23.6585 17.0408 23.4258 17.0408 23.1156V21.4869C17.0408 21.2025 17.2734 20.9439 17.5837 20.9439C17.8939 20.9439 18.1524 21.2025 18.1524 21.4869V23.1156C18.1524 23.4258 17.8939 23.6585 17.5837 23.6585Z" fill="white"/>
<path d="M20.1431 26.3471C20.0138 26.3471 19.8587 26.2954 19.7553 26.192L17.5837 24.0204L15.4121 26.192C15.2052 26.4247 14.8433 26.4247 14.6365 26.192C14.4038 25.9852 14.4038 25.6233 14.6365 25.4165L17.1959 22.857C17.4027 22.6244 17.7647 22.6244 17.9715 22.857L20.5567 25.4165C20.7636 25.6233 20.7636 25.9852 20.5567 26.192C20.4275 26.2954 20.2982 26.3471 20.1431 26.3471Z" fill="white"/>
<path d="M15.5155 35.6541C15.2828 35.6541 15.076 35.5249 14.9984 35.3181L13.3438 31.3367L11.3532 35.0854C11.2498 35.2922 11.043 35.4215 10.8103 35.3956C10.6035 35.3698 10.3966 35.2146 10.3449 35.0078L5.2778 20.0908C5.20024 19.8582 5.27781 19.5738 5.51048 19.4445L11.9478 15.6442C12.2063 15.4891 12.5424 15.5925 12.6975 15.851C12.8526 16.1095 12.7492 16.4456 12.4907 16.6007L6.46703 20.1684L10.9654 33.4567L12.9043 29.7856C13.0078 29.6046 13.2146 29.4754 13.4214 29.5012C13.6282 29.5012 13.8092 29.6305 13.9126 29.8373L15.4896 33.6635L17.0666 29.8373C17.1959 29.5529 17.5061 29.4236 17.7905 29.5271C18.0749 29.6563 18.2041 29.9665 18.1007 30.2509L16.0067 35.3181C15.9291 35.5249 15.7223 35.6541 15.5155 35.6541Z" fill="white"/>
<path d="M20.0397 35.6541C19.8071 35.6541 19.6002 35.5249 19.5227 35.3181L17.4545 30.2509C17.3252 29.9665 17.4545 29.6563 17.7388 29.5271C18.0232 29.4236 18.3593 29.5529 18.4627 29.8373L20.0397 33.6635L21.6426 29.8373C21.7202 29.6305 21.9011 29.5012 22.1338 29.5012C22.3406 29.4754 22.5474 29.6046 22.6508 29.7856L24.5639 33.4567L29.0882 20.1684L23.0386 16.6007C22.7801 16.4456 22.7026 16.1095 22.8577 15.851C23.0128 15.5925 23.3489 15.4891 23.6074 15.6442L30.0189 19.4445C30.2515 19.5738 30.3549 19.8582 30.2774 20.0908L25.2103 35.0078C25.1327 35.2146 24.9517 35.3698 24.7191 35.3956C24.5122 35.4215 24.3054 35.2922 24.202 35.0854L22.2113 31.3367L20.5568 35.3181C20.4534 35.5249 20.2724 35.6541 20.0397 35.6541Z" fill="white"/>
<path d="M7.94065 19.2119C7.70798 19.2119 7.47531 19.0309 7.4236 18.7982L4.42469 8.22446C4.34713 7.94008 4.5281 7.62984 4.81248 7.55228C5.12271 7.47473 5.40709 7.65569 5.51051 7.94007L8.48356 18.488C8.56112 18.7982 8.406 19.1084 8.09577 19.186C8.04407 19.2032 7.99236 19.2119 7.94065 19.2119Z" fill="white"/>
<path fill-rule="evenodd" clip-rule="evenodd" d="M0.546786 13.0588C0.46061 13.0588 0.383054 13.0416 0.314113 13.0071C0.081439 12.9037 -0.0219749 12.671 0.00387781 12.4383L1.39992 1.8129C1.42577 1.55437 1.6326 1.34755 1.89113 1.3217L11.6376 0.339294C11.8703 0.339294 12.0771 0.442708 12.1805 0.64953C12.2839 0.856351 12.258 1.11488 12.0771 1.29585L0.934576 12.8778C0.831165 13.0071 0.701902 13.0588 0.546786 13.0588ZM2.43403 2.38165L1.32237 10.913L10.2674 1.60607L2.43403 2.38165Z" fill="white"/>
<path d="M27.5887 18.8499C27.537 18.8499 27.4853 18.8413 27.4336 18.8241C27.1492 18.7465 26.9682 18.4363 27.0716 18.1519L30.0447 7.604C30.1222 7.29376 30.4325 7.13865 30.7169 7.21621C31.0271 7.29376 31.1822 7.604 31.1047 7.88838L28.1316 18.4621C28.054 18.6948 27.8214 18.8499 27.5887 18.8499Z" fill="white"/>
<path fill-rule="evenodd" clip-rule="evenodd" d="M35.0084 12.7228C34.8533 12.7228 34.6982 12.6452 34.5948 12.5418L23.4523 0.933976C23.2971 0.77886 23.2454 0.520327 23.3488 0.313505C23.4523 0.106684 23.6849 -0.0225746 23.9176 0.00327803L33.6641 0.985676C33.9226 1.01153 34.1036 1.21836 34.1553 1.45103L35.5513 12.1023C35.5772 12.335 35.4479 12.5677 35.2411 12.6711C35.1549 12.7056 35.0773 12.7228 35.0084 12.7228ZM25.2878 1.2442L34.2328 10.577L33.1212 2.04564L25.2878 1.2442Z" fill="white"/>
<path d="M25.1327 2.69197C25.081 2.69197 25.0379 2.69197 25.0034 2.69197C22.0303 1.91639 11.1464 2.69197 11.043 2.69197C10.7327 2.71782 10.4742 2.48515 10.4483 2.17491C10.4225 1.89054 10.6552 1.60615 10.9654 1.60615C11.4049 1.55445 22.1338 0.80472 25.2619 1.60615C25.5722 1.68371 25.7273 1.99394 25.6756 2.27832C25.598 2.53685 25.3653 2.69197 25.1327 2.69197Z" fill="white"/>
</svg>
