<svg width="16" height="16" viewBox="0 0 16 16" fill="none" xmlns="http://www.w3.org/2000/svg">
<path d="M3.4707 3.29492C4.02299 3.29492 4.4707 3.74264 4.4707 4.29492C4.47053 4.84706 4.02288 5.29492 3.4707 5.29492H2.64746C2.4758 5.29492 2.31084 5.36299 2.18945 5.48438C2.06817 5.60575 2 5.77079 2 5.94238V13.3545C2.00008 13.526 2.0682 13.6912 2.18945 13.8125C2.31082 13.9338 2.47587 14.002 2.64746 14.002H10.0596C10.2312 14.002 10.3962 13.9338 10.5176 13.8125C10.6389 13.6912 10.7069 13.526 10.707 13.3545V12.5312C10.707 11.979 11.1548 11.5313 11.707 11.5312C12.2593 11.5312 12.707 11.979 12.707 12.5312V13.3545C12.7069 14.0565 12.428 14.7302 11.9316 15.2266C11.4352 15.7229 10.7616 16.002 10.0596 16.002H2.64746C1.94544 16.002 1.27183 15.7229 0.775391 15.2266C0.279064 14.7302 8.51298e-05 14.0564 0 13.3545V5.94238C0 5.24036 0.279033 4.56676 0.775391 4.07031C1.27185 3.57385 1.94536 3.29492 2.64746 3.29492H3.4707ZM13.2725 0C13.9963 0.000101269 14.6903 0.287974 15.2021 0.799805C15.714 1.31167 16.0019 2.00565 16.002 2.72949C16.002 3.45345 15.7141 4.14824 15.2021 4.66016L15.2012 4.65918L14.1689 5.69531C14.1368 5.7405 14.102 5.78468 14.0615 5.8252C14.0226 5.86416 13.9798 5.89752 13.9365 5.92871L8.29785 11.5898L7.58887 10.8828V10.8838L8.29785 11.5898C8.11022 11.7781 7.85469 11.8838 7.58887 11.8838H5.11816C4.56592 11.8838 4.11823 11.436 4.11816 10.8838V8.41309C4.11816 8.14725 4.2238 7.89174 4.41211 7.7041L10.0713 2.06348C10.1024 2.02028 10.1379 1.9793 10.1768 1.94043C10.2155 1.90169 10.2568 1.86699 10.2998 1.83594L11.3428 0.798828C11.8546 0.287402 12.5489 0 13.2725 0ZM6.11816 8.82812V9.88379H7.17383L11.9307 5.1084L10.8926 4.07031L6.11816 8.82812ZM13.2725 2C13.0789 2 12.8927 2.07703 12.7559 2.21387L12.7549 2.21484L12.3086 2.6582L13.3428 3.69238L13.7871 3.24707L13.7881 3.24609C13.9249 3.10925 14.002 2.92302 14.002 2.72949C14.0019 2.53608 13.9248 2.35065 13.7881 2.21387C13.6513 2.07711 13.4659 2.0001 13.2725 2Z" fill="url(#paint0_linear_125_3670)"/>
<defs>
<linearGradient id="paint0_linear_125_3670" x1="-4.18449e-08" y1="8.13207" x2="16.0018" y2="8.13207" gradientUnits="userSpaceOnUse">
<stop stop-color="#00CAFC"/>
<stop offset="1" stop-color="#0056E2"/>
</linearGradient>
</defs>
</svg>
